<svg xmlns="http://www.w3.org/2000/svg" width="512" height="512" viewBox="0 0 442.533 442.533" enable-background="new 0 0 442.533 442.533"><path fill="#fff" d="M434.54 98.5L395.7 59.67c-5.3-5.33-11.8-8-19.4-8-7.62 0-14.1 2.67-19.42 8l-187.3 187.58-83.93-84.23c-5.33-5.33-11.8-8-19.4-8-7.63 0-14.1 2.67-19.43 8L8 201.85c-5.34 5.33-8 11.8-8 19.42 0 7.6 2.66 14.1 8 19.4l103.34 103.36 38.84 38.83c5.32 5.33 11.8 8 19.4 8 7.62 0 14.1-2.67 19.42-8l38.83-38.83 206.7-206.7c5.33-5.33 8-11.8 8-19.42 0-7.6-2.67-14.06-8-19.4z"/></svg>