<svg xmlns="http://www.w3.org/2000/svg" width="379.5" height="80" version="1" viewBox="-89.8 -18.9 379.5 80" enable-background="new -89.8 -18.9 379.5 80"><path fill="#222" d="M-40.3 27c0-1.5-.2-2.5-.5-3.2-.3-.6-1-1.2-1.9-1.7l-1.1-.6c-.3-.1-.5-.3-.5-.5v-.4c0-.2.2-.4.5-.6l7.6-3.6c.2-.1.4-.1.5-.2.1 0 .3-.1.5-.1s.3.1.4.2c.1.1.1.3.2.5l.6 4.5h.3c1.1-1.8 2.3-3.1 3.6-4.1 1.3-1 2.6-1.5 4-1.5 1 0 1.8.3 2.4.9.6.6.9 1.4.9 2.2 0 .9-.4 1.7-1.1 2.4-.7.7-1.5 1-2.3 1-.5 0-.9-.1-1.2-.2-.4-.1-.7-.2-.9-.3-.5-.3-1-.5-1.8-.5-.4 0-.8.1-1.3.4-.5.3-.9.7-1.3 1.4-.3.5-.4 1-.6 1.6-.1.6-.2 1.1-.2 1.5v12.1c0 1 .1 1.7.4 2.1.1.5.5.7 1.1.7h2.8c.3 0 .5.1.5.4v1.4c0 .3-.1.4-.4.4-.2 0-1 0-2.3-.1-1.3-.1-3.2-.1-5.5-.1-2.2 0-3.9 0-5.2.1-1.2.1-1.9.1-2.2.1-.3 0-.4-.1-.4-.4v-1.4c0-.3.2-.5.6-.5h2.2c1.1 0 1.6-.6 1.6-1.7V27z"/><path fill="#04689A" d="M-8.8 25.8c-.5 1.5-3.6 10.6-4 12.3-.1.5-.1 1-.1 1.3 0 .8 1 1.5 2.3 1.5h2.7c.5 0 .6.1.6.3v1.6c0 .4-.1.6-.5.6-.9 0-3.6-.2-8-.2-4.7 0-6.1.2-7 .2-.4 0-.4-.4-.4-.8v-1.2c0-.4.1-.5.4-.5h1.9c1.8 0 2.9-.9 4.1-2.9.6-1.1 5.2-12.6 7.1-18C-9.2 18.8-4 5-3.4 3.4c.1-.6.5-1.8.1-2.2-.2-.2-.3-.6-.3-.8 0-.3.1-.5.6-.6 2-.5 5.6-2.4 6.3-3.2.4-.4.7-.6 1-.6.4 0 .6.7.7 1.1 1.1 4 6.1 18.3 7.3 22.3 1.5 5 5.6 16.9 6.5 18.6 1.1 2.2 2.8 2.9 4.1 2.9h2c.4 0 .5.1.5.4v1.3c0 .4-.1.8-.6.8-1.1 0-2.4-.2-9.4-.2-5.4 0-7.5.2-8.9.2-.5 0-.6-.4-.6-.8v-1.3c0-.4.1-.5.5-.5H8c1.8 0 2.3-.6 1.9-2.4-.5-2.3-3.1-10.5-3.8-12.8H-8.8zm14.2-2.6C4.8 21.3.4 6.8 0 5.5c-.3-.8-.4-1.1-.6-1.1-.4 0-.6.3-.8.8-.3.8-6 16.5-6.4 18H5.4zm31.2 31.3c.1 3.7.5 4 1.8 4h2.3c.4 0 .5.2.5.5v1.3c0 .4-.1.5-.6.5s-2.4-.2-7.4-.2c-4.2 0-6.5.2-7 .2-.4 0-.5-.1-.5-.5V59c0-.3.1-.4.4-.4h2.3c.9 0 1.3-.6 1.4-1.7.1-1.4.1-4 .1-8.8V26c0-1.9-.3-2.8-2.2-3.8l-1.4-.8c-.4-.3-.5-.4-.5-.6v-.6c0-.3.1-.4.5-.5l7.3-3.2c.8-.3 1.3-.5 1.8-.5.3 0 .5.4.6.8l.4 3.1h.1c1.7-2 5-4 8.7-4 3.1 0 5.4 1.1 7.4 3.2 2.6 2.7 3.4 5.1 3.4 9.1C56 37.4 49.9 44 42.1 44c-1.4 0-3.7-.3-5.6-1.1l.1 11.6zm-.1-18c0 1.4.4 2.8 1.7 3.6 1.3 1 2.9 1.5 5 1.5 3.1 0 6.2-2.6 6.3-9.3 0-5.9-2-12.7-7.5-12.7-2 0-4.2 1-5.5 2.8v14.1zm33.5 18c.1 3.7.5 4 1.8 4h2.3c.4 0 .5.2.5.5v1.3c0 .4-.1.5-.6.5s-2.4-.2-7.4-.2c-4.2 0-6.5.2-7 .2-.4 0-.5-.1-.5-.5V59c0-.3.1-.4.4-.4h2.3c.9 0 1.3-.6 1.4-1.7.1-1.4.1-4 .1-8.8V26c0-1.9-.3-2.8-2.2-3.8l-1.4-.8c-.4-.3-.5-.4-.5-.6v-.6c0-.3.1-.4.5-.5l7.3-3.2c.8-.3 1.3-.5 1.8-.5.3 0 .5.4.6.8l.4 3.1h.1c1.7-2 5-4 8.7-4 3.1 0 5.4 1.1 7.4 3.2 2.6 2.7 3.4 5.1 3.4 9.1 0 9.2-6.1 15.8-13.9 15.8-1.4 0-3.7-.3-5.6-1.1l.1 11.6zm-.1-18c0 1.4.4 2.8 1.7 3.6 1.3 1 2.9 1.5 5 1.5 3.1 0 6.2-2.6 6.3-9.3 0-5.9-2-12.7-7.5-12.7-2 0-4.2 1-5.5 2.8v14.1zm26.8-17.6c0-4.5-.1-10-.3-11.6-.1-2.2-1.2-3.2-3.3-3.8L92 3c-.4-.1-.4-.3-.4-.5v-.7c0-.1.1-.4.5-.5 2.6-.8 7.5-2.4 9.6-3.7.8-.3 1.1-.4 1.4-.4.4 0 .6.3.6 1.1-.1 3.4-.3 16.7-.3 20.2v9.2c0 2.9 0 9.4.1 11.4.1 1.1.3 2 1.7 2h2.4c.6 0 .8.1.8.6v1.1c0 .4-.1.6-.4.6-.5 0-3.3-.2-7.8-.2-4.9 0-7.4.2-7.9.2-.4 0-.5-.3-.5-.6v-1.2c0-.4.1-.5.9-.5h2.4c.6 0 1.6-.5 1.6-2.3V18.9zm17 6.2c0-1.9-.4-3.2-3.3-4-.6-.1-.6-.3-.6-.6v-.7c0-.3.1-.4.4-.5.9-.4 7.2-2.6 8.3-3.1.6-.3 1.1-.4 1.5-.4.4 0 .6.3.5.8-.1 1-.1 5.1-.1 10.4v7c0 2.4 0 4.7.1 5.5.1 1.1.4 1.7 1 1.7h2.6c.5 0 .6.1.6.4v1.3c0 .4-.1.6-.5.6-.5 0-3.4-.2-7.7-.2-3.7 0-6.1.2-6.9.2-.3 0-.5-.1-.5-.6v-1.2c0-.4.3-.5.6-.5h2.8c.6 0 1-.3 1-1.3.1-1.9.1-4 .1-5.7v-9.1zm2.2-15.7c-2 0-3.9-1.4-3.9-3.6 0-1.9 1.7-3.6 4.3-3.6 2.6 0 3.8 1.9 3.8 3.3-.1 1.9-1.3 3.9-4.2 3.9zm35.5 29c.2.2.3.4 0 .8-1.6 2-6.1 4.9-10.8 4.9-4.3 0-7.8-1.1-10.2-4.2-2.4-3.1-3.1-5.6-3.1-8.8 0-4 1.5-8.5 4.7-11.4 2.7-2.4 5.7-3.7 9.3-3.7 7.4 0 9.1 3.8 9.1 5.7 0 1.5-1 2.8-2.8 2.8-2.2 0-3.2-1.5-3.8-3.2-.9-2.2-2.3-2.6-4-2.6-2.6 0-5.7 2.9-5.7 7.4 0 3.8.1 6.4 2.5 10.3 1.7 2.8 4.5 3.4 6.6 3.4 3.2 0 5.2-1.1 6.9-2.4.1-.1.4-.1.6.1l.7.9zm18.1 1.8c-1.4 1.5-3.1 2.6-5.6 3.4-1.5.4-2.8.4-4.1.4-2.4 0-4.4-1.9-4.4-5.5 0-2.9 1.3-5.8 5.9-7.9 4-1.9 6.4-2.9 7.8-4v-3.3c-.1-1.3-.3-2.8-1-3.6-.6-.7-1.8-1-3.2-1-1.1 0-2.7.4-3.7 1.1-.9.6-.3 1.6-.3 3.1 0 2.3-1.1 3.7-3.8 3.7-1.1 0-2.2-.8-2.2-2.2 0-1.8 1-3.8 2.9-5.2 2.7-2 6.1-3.6 10.3-3.6 3.6 0 4.7.8 5.9 1.8 1.4 1.3 1.5 3.1 1.5 4.8l.1 10.1v3.1c0 3.4.5 4.5 1.7 4.5.9 0 1.8-.5 2-1 .3-.4.4-.4.6-.3l.8.5c.3.1.4.4.1 1-.6 1.1-2.2 3.7-5.9 3.7-2.4 0-4.5-1.1-5.4-3.9zm-.4-11.1c-2.8 1.8-7 2.9-7 7.5 0 2.6 1.4 3.9 2.9 3.9 1.8-.1 4.1-1.9 4.1-3.1v-8.3zm13.7-8.9c-.5 0-.9-.3-.9-.9 0-.5.4-.9 1.2-1.2 1.8-.6 7.3-5.4 8.7-8 .3-.5.6-.6 1-.6.5 0 .8.4.8.9l-.3 6.3h8.4c.4 0 .5.3.4.5l-.6 2.7c-.1.3-.3.4-.6.4h-7.7c-.1 2.7-.2 5.7-.2 8.6v5.7c0 5 2.1 6 3.4 6 1.4 0 2.8-.3 3.7-.8.4-.2.6-.2.8.1l.4.8c.1.4 0 .6-.3.9-.9.6-3.6 2.6-8 2.6-3.8 0-6.7-3.1-6.7-5.7 0-2.3.2-7.4.2-9.8v-8.3h-3.7zm25.3 4.9c0-1.9-.4-3.2-3.3-4-.6-.1-.6-.3-.6-.6v-.7c0-.3.1-.4.4-.5.9-.4 7.2-2.6 8.3-3.1.6-.3 1.1-.4 1.5-.4.4 0 .6.3.5.8-.1 1-.1 5.1-.1 10.4v7c0 2.4 0 4.7.1 5.5.1 1.1.4 1.7 1 1.7h2.6c.5 0 .6.1.6.4v1.3c0 .4-.1.6-.5.6-.5 0-3.4-.2-7.7-.2-3.7 0-6.1.2-6.9.2-.3 0-.5-.1-.5-.6v-1.2c0-.4.3-.5.6-.5h2.8c.6 0 1-.3 1-1.3.1-1.9.1-4 .1-5.7v-9.1zm2.1-15.7c-2 0-3.9-1.4-3.9-3.6 0-1.9 1.7-3.6 4.3-3.6 2.6 0 3.8 1.9 3.8 3.3 0 1.9-1.3 3.9-4.2 3.9zm35.6 10.3c3 3 4.4 6.3 4.4 10.1 0 3.6-1.5 7-4 9.7-2.6 2.9-6.4 4.6-10.7 4.6-4 0-7.5-1.1-10.3-4.6-2.8-3.3-3.4-6-3.4-9.9 0-3.1 1.5-7.5 5.4-10.6 3.1-2.6 6.4-3.1 9.1-3.1 4.1 0 7.3 1.7 9.5 3.8zm-3.4 9.9c0-7-3.7-11.1-6.6-11.1-1.7 0-2.9.5-4 1.7-2 2.2-2.7 4.9-2.7 9.6 0 3.7.3 6.1 2 8.9 1.1 1.7 2.5 2.7 5 2.7 4.1 0 6.3-5.3 6.3-11.8zM262 16.4c.5-.3.9-.5 1.3-.5s.6.3.8.8l.5 3.3h.4c.8-.9 1.9-1.9 3.2-2.6 1.5-.9 3.2-1.5 5.1-1.5 2.2 0 4.2.4 5.6 1.5 2.8 2 3.5 4 3.5 6.6v9.2c0 2-.1 4.9-.1 6.1 0 1.4.8 1.8 1.5 1.8h1.8c.6 0 .8.1.8.4V43c0 .3-.1.4-.5.4-.5 0-2.4-.2-6.9-.2-3.8 0-5.9.2-6.3.2-.4 0-.5-.3-.5-.8v-1.1c0-.4.1-.5.8-.5h1.3c.5 0 1-.4 1.1-1.5.2-1.7.3-3.4.3-6v-7.3c0-2.6-.1-4.2-1.7-5.5-1.3-1.1-2.4-1.1-3.8-1.1-1 0-2.6.3-4.1 1.7-1 1-1.3 2.8-1.3 4.5V39c0 1.4.3 2.2 1.2 2.2h1.1c.5 0 .6.1.6.6v1.1c0 .4-.1.6-.5.6s-2.2-.2-6-.2c-4 0-6 .2-6.4.2-.3 0-.4-.3-.4-.6v-1.2c0-.4.1-.5.6-.5h1.3c.8 0 1.7-.3 1.7-1.3V25.5c0-1.9-1.1-2.9-2.7-3.7l-.5-.3c-.4-.1-.5-.4-.5-.6v-.5c0-.3.3-.5.6-.6l7.1-3.4z"/><path fill="#222" d="M-63.3 40.6c3.9 0 7.8-1.2 8.4-9.4.6-8 .2-17.9-.1-22.8-.2-2.1-.9-2.4-2.3-2.5l-3.2-.3-.2-1.9c1.9 0 4.5.2 6.9.2 2.2 0 4.2-.2 6.6-.2l.2 1.9-2.4.2c-1.6.2-1.8.9-1.9 2.8-.4 6.5-.4 18.7-1.1 23.9-.5 4.2-2.2 7-4.5 8.8-2.4 1.9-6 2.7-10.2 2.7-6 0-10.4-1.4-12.7-4.3-1.6-2-2.4-4.6-2.4-8.6-.1-5.2-.1-18.9-.1-23 0-1.3-.2-1.9-1.1-2l-3.1-.3V3.7c2.5 0 6.5.2 10.2.2 3.8 0 7.5-.2 9.6-.2l.2 1.9-2.8.3c-.9.1-1.2.6-1.3 1.5-.5 4.9-.6 16.9-.2 24.2.2 4.7.9 6.3 2.4 7.5 1.1 1 3.4 1.5 5.1 1.5zM-77.7-10l.3-.1c.1 0 9.2-4 19.9 0l.3.1v1.5l8.3-2.3-18.3-7.3-18.5 7.3 8 2.2V-10zm.9.6v4.7h18.6v-4.7c-9.2-3.3-17.1-.6-18.6 0zM-51.5-1s-.1 0 0 0c-2.8-.9-3.2-8.5-3.3-8.8 0-.1.1-.2.2-.2s.2.1.2.2.5 7.6 2.9 8.4c.1 0 .2.2.1.3.1 0 0 .1-.1.1zm-.2.3c-2.8-.9-3.2-8.7-3.2-9.1 0-.1.1-.2.2-.2s.2.1.2.2c.1 2.2.8 7.9 2.8 8.6.1 0 .2.2.1.3.1.1 0 .2-.1.2zm-.2.3c-2.8-.9-3-9.2-3-9.5 0-.1.1-.2.2-.2s.2.1.2.2c0 2.3.6 8.4 2.6 9.1.1 0 .2.2.1.3.1.1 0 .1-.1.1zm.5-1c-2.8-.9-3.4-8.4-3.4-8.8 0-.1.1-.2.2-.2s.2.1.2.2.6 7.5 3 8.3c.1 0 .2.2.1.3.1.2 0 .2-.1.2zm.2-.3c-2.8-.9-3.6-8.1-3.6-8.4 0-.1.1-.2.2-.3.1 0 .2.1.3.2 0 .1.8 7.2 3.2 8 .1 0 .2.2.1.3 0 .1-.1.2-.2.2z"/></svg>