<?xml version="1.0" encoding="utf-8"?>
<!-- Generator: Adobe Illustrator 15.1.0, SVG Export Plug-In . SVG Version: 6.00 Build 0)  -->
<!DOCTYPE svg PUBLIC "-//W3C//DTD SVG 1.1//EN" "http://www.w3.org/Graphics/SVG/1.1/DTD/svg11.dtd">
<svg version="1.1" id="Layer_1" xmlns="http://www.w3.org/2000/svg" xmlns:xlink="http://www.w3.org/1999/xlink" x="0px" y="0px"
	 width="365.5px" height="569.078px" viewBox="3.5 0 365.5 569.078" enable-background="new 3.5 0 365.5 569.078"
	 xml:space="preserve">
<g>
	<path fill="#006595" d="M218.133,537.454c35.568,0,70.823-10.703,76.802-85.301c2.834-73.657,3.465-162.731,0-207.431
		c-1.574-19.199-9.126-24.867-22.032-26.125h-30.531v-17.628c16.996,0,40.604,0,62.637,0c19.83,0,40.29,0,61.696,0v17.628H344.67
		c-14.795,1.574-19.515,14.795-20.776,32.42c-2.517,62.326-2.831,164.624-6.296,212.466c-4.405,38.406-20.459,63.901-40.602,79.64
		c-22.034,16.999-54.771,24.234-93.173,24.234c-54.141,0-95.061-12.904-115.833-39.033c-14.795-17.938-21.403-41.86-22.034-78.691
		c-0.63-47.529,0.63-171.859,0-209.632c0-11.96-3.462-17.625-11.331-18.572H6.296v-20.46c22.664,0,58.862,0,92.856,0
		c34.625,0,70.193,0,90.022,0v20.46h-25.495c-8.499,1.26-12.906,5.668-14.164,13.537c-4.407,44.695-2.834,154.234,0,220.022
		c1.575,43.12,8.5,56.973,21.404,68.302c10.703,9.129,31.789,14.164,46.901,14.164H218.133z"/>
	<g>
		<path fill="#006595" d="M94.431,81.673v43.124h169.656V81.986C180.676,52.083,108.595,76.321,94.431,81.673z"/>
		<path fill="#006595" d="M328.931,147.774c-17.942-5.982-25.811-49.419-28.328-66.102l48.158-13.534L181.935,1.721L13.849,68.139
			l72.396,19.83V76.321l2.517-0.944c0.948-0.316,83.731-35.884,181.309,0l2.832,0.944v13.535l22.032-6.295
			c0.948,17.942,5.353,73.657,26.442,81.209C323.608,160.078,327.625,150.789,328.931,147.774z"/>
	</g>
</g>
</svg>
